<svg xmlns="http://www.w3.org/2000/svg" xmlns:xlink="http://www.w3.org/1999/xlink" width="16" height="16" viewBox="0 0 16 16">
  <title>cycleParking</title>
  <image width="16" height="16" xlink:href="Coaches5.png"/>
  <g>
    <circle cx="8" cy="8" r="7.5477" fill="#19b2e8"/>
    <path d="M267.8932,323.1035a2.152,2.152,0,0,0-.818.1629l-.71-1.2876.1766-.4137a.703.703,0,0,0,.1694-.0452c.3591-.1462.6159-.4447.3614-.6147H265.101s-.1349.1058-.1052.2045c.0267.088.3549.0808.7187.2271.07.0273.16.0749.2622.12l-.2164.53h-3.8962l.1118-.3614a.6388.6388,0,0,0,.0452-.327c-.0713-.2307-.4144-.2223-.3436-.3293a.2077.2077,0,0,1,.2128-.07l.71-.0012-.0012-.5148-1.0528.0012a.5428.5428,0,0,0-.4893.497c-.0529.3721.1813.4661.412.6432l-.5386,1.7442a2.165,2.165,0,1,0,.4572.2628l.0642-.2081,2.4308,1.6919a.8666.8666,0,0,0,.8358,1.1045.8594.8594,0,0,0,.2669-.0428l.1635.3388h-.24v.2794h.8382v-.2794h-.3448l-.2075-.4387a.87.87,0,0,0,.3692-.5315h.1926a2.1458,2.1458,0,1,0,2.1365-2.3422Zm-6.2432,2.1472a1.5454,1.5454,0,1,1-.8994-1.4018l-.1926.6242a2.5156,2.5156,0,0,1-.2961.3995c-.1415.1427-.3543.214-.3543.4625.0006.1938.2158.1046.5855-.0547a1.1444,1.1444,0,0,0,.5356-.5873l.1659-.5374A1.5417,1.5417,0,0,1,261.65,325.2507Zm.0826-2.838h3.8534l-.8055,1.9713c-.0208-.0012-.041-.0024-.0624-.0024a.8426.8426,0,0,0-.258.0392l-.14-.2972h.2277v-.2794h-.8388v.2794h.3359l.1938.4019a.92.92,0,0,0-.1124.0916l-2.5283-1.7668Zm2.9854,3.423a.5856.5856,0,1,1,.5856-.585A.5845.5845,0,0,1,264.7181,325.8357Zm.5392-1.2662.8656-2.0248.5273.9583a2.1416,2.1416,0,0,0-.8941,1.5694h-.1867A.867.867,0,0,0,265.2573,324.5695Zm1.6865-.5338.5707,1.0368h-1.1533A1.539,1.539,0,0,1,266.9438,324.0356Zm.9494,2.7583a1.5431,1.5431,0,0,1-1.53-1.3483h1.523s.189-.0143.2372-.0713c.0886-.1058-.0707-.3365-.0707-.3365L267.37,323.8a1.5248,1.5248,0,0,1,.5231-.0927,1.5432,1.5432,0,1,1,0,3.0865Z" transform="translate(-256 -315.89)" fill="#fff"/>
  </g>
</svg>
