<svg xmlns="http://www.w3.org/2000/svg" width="16.3699" height="16.3699" viewBox="0 0 16.3699 16.3699">
  <title>CCTV_TfL</title>
  <circle cx="8.1849" cy="8.1849" r="7.9349" fill="#fff" stroke="#2f3249" stroke-miterlimit="10" stroke-width="0.5"/>
  <polygon points="14.494 11.427 13.655 11.427 13.655 10.952 10.587 10.952 10.551 11.002 10.539 11.013 10.534 11.019 10.531 11.019 10.531 11.027 10.514 11.055 10.464 11.111 10.436 11.136 10.411 11.164 10.38 11.186 10.352 11.212 10.291 11.253 10.254 11.27 10.221 11.287 10.201 11.293 10.185 11.301 10.151 11.315 10.112 11.323 10.075 11.334 10.003 11.349 9.919 11.351 9.841 11.349 9.762 11.334 9.69 11.315 9.617 11.287 9.55 11.253 9.489 11.212 9.433 11.164 9.377 11.111 9.329 11.052 9.287 10.988 9.254 10.924 9.226 10.851 9.206 10.779 9.19 10.7 9.181 10.622 9.198 10.463 9.248 10.317 9.329 10.178 8.508 8.797 8.413 8.794 8.318 8.789 8.242 8.775 8.17 8.755 8.097 8.727 8.03 8.694 7.966 8.652 7.91 8.607 7.857 8.554 7.831 8.523 7.812 8.495 7.748 8.398 7.692 8.3 4.173 10.39 3.707 9.602 3.033 10.002 3.198 10.278 2.701 10.574 1.876 9.186 2.374 8.892 2.539 9.169 3.212 8.769 2.743 7.981 9.81 3.781 11.244 6.19 8.938 7.559 8.986 7.626 9.028 7.696 9.064 7.76 9.092 7.833 9.111 7.906 9.125 7.984 9.128 8.062 9.125 8.101 9.125 8.143 9.12 8.16 9.117 8.16 9.117 8.18 9.111 8.219 9.1 8.255 9.089 8.294 9.066 8.344 9.055 8.37 9.047 8.398 9.002 8.504 9.827 9.89 9.913 9.89 10.003 9.896 10.075 9.907 10.112 9.915 10.151 9.929 10.221 9.954 10.291 9.99 10.352 10.032 10.411 10.08 10.464 10.13 10.511 10.189 10.587 10.295 13.655 10.295 13.655 9.817 14.494 9.817 14.494 11.427" fill="#2f3249" fill-rule="evenodd"/>
</svg>
