<svg xmlns="http://www.w3.org/2000/svg" width="13" height="11" viewBox="0 0 13 11">
  <title>RoadClosure</title>
  <path d="M13,3H2A1,1,0,0,0,1,4v6a1,1,0,0,0,1,1H3v2.5a.5.5,0,0,0,1,0V13h7v.5a.5.5,0,0,0,1,0V11h1a1,1,0,0,0,1-1V4A1,1,0,0,0,13,3Zm0,1V6L11,4ZM9.5,4,13,7.5V10L7,4Zm-4,6L2,6.5V4l6,6ZM2,10V8l2,2Zm9,2H4V11h7Zm-.207-2H9.5l-6-6h2l6,6Z" transform="translate(-1 -3)"/>
  <polygon points="1 5 3 7 1 7 1 5" fill="red"/>
  <polygon points="4.5 1 2.5 1 8.5 7 10.5 7 4.5 1" fill="red"/>
  <polygon points="10 1 12 3 12 1 10 1" fill="red"/>
  <polygon points="8.5 1 6 1 12 7 12 4.5 8.5 1" fill="#fff"/>
  <polygon points="7 7 1 1 1 3.5 4.5 7 7 7" fill="#fff"/>
</svg>
