<svg xmlns="http://www.w3.org/2000/svg" width="15.0218" height="15.0218" viewBox="0 0 15.0218 15.0218">
  <title>car</title>
  <circle cx="7.5109" cy="7.5109" r="7.0346" fill="#fff" stroke="#960000" stroke-miterlimit="10" stroke-width="0.9526"/>
  <path d="M12.4072,7.3113a1.1325,1.1325,0,0,0-.8682-1.0947L10.49,3.77h0a.3774.3774,0,0,0-.3473-.234H4.8576a.3774.3774,0,0,0-.3322.2114h0L3.461,6.209a1.1325,1.1325,0,0,0-.8682,1.1022V9.9536h.755v.755a.755.755,0,1,0,1.51,0v-.755h5.2847v.755a.755.755,0,0,0,1.51,0v-.755h.755Zm-7.3231-3.02H9.9159l.7927,1.8874H4.2914Zm-.9814,4.53a.755.755,0,1,1,.755-.755A.7549.7549,0,0,1,4.1027,8.8212Zm6.7946,0a.755.755,0,1,1,.755-.755A.7549.7549,0,0,1,10.8973,8.8212Z" transform="translate(0.0109 0.0109)" fill="#960000"/>
</svg>
